HIERARCHY
ROOT Hips
{
	OFFSET 0.000000 0.000000 0.000000 
	CHANNELS 6 Xposition Yposition Zposition Zrotation Yrotation Xrotation
	JOINT LeftUpLeg
	{
		OFFSET 1.363060 -1.794630 0.839290 
		CHANNELS 3 Zrotation Yrotation Xrotation
		JOINT LeftLeg
		{
			OFFSET 2.448110 -6.726130 0.000000 
			CHANNELS 3 Zrotation Yrotation Xrotation
			JOINT LeftFoot
			{
				OFFSET 2.562200 -7.039590 0.000000 
				CHANNELS 3 Zrotation Yrotation Xrotation
				JOINT LeftToeBase
				{
					OFFSET 0.157640 -0.433110 2.322550 
					CHANNELS 3 Zrotation Yrotation Xrotation
					End Site
					{
						OFFSET 0.000000 0.000000 0.000000 
					}
				}
			}
		}
	}
	JOINT RightUpLeg
	{
		OFFSET -1.305520 -1.794630 0.839290 
		CHANNELS 3 Zrotation Yrotation Xrotation
		JOINT RightLeg
		{
			OFFSET -2.542530 -6.985550 0.000000 
			CHANNELS 3 Zrotation Yrotation Xrotation
			JOINT RightFoot
			{
				OFFSET -2.568260 -7.056230 0.000000 
				CHANNELS 3 Zrotation Yrotation Xrotation
				JOINT RightToeBase
				{
					OFFSET -0.164730 -0.452590 2.363150 
					CHANNELS 3 Zrotation Yrotation Xrotation
					End Site
					{
						OFFSET 0.000000 0.000000 0.000000 
					}
				}
			}
		}
	}
	JOINT Spine
	{
		OFFSET 0.028270 2.035590 -0.193380 
		CHANNELS 3 Zrotation Yrotation Xrotation
		JOINT Spine1
		{
			OFFSET 0.056720 2.048850 -0.042750 
			CHANNELS 3 Zrotation Yrotation Xrotation
			JOINT Neck1
			{
				OFFSET -0.054170 1.746240 0.172020 
				CHANNELS 3 Zrotation Yrotation Xrotation
				JOINT Head
				{
					OFFSET 0.104070 1.761360 -0.123970 
					CHANNELS 3 Zrotation Yrotation Xrotation
					End Site
					{
						OFFSET 0.000000 0.000000 0.000000 
					}
				}
			}
			JOINT LeftArm
			{
				OFFSET 3.362410 1.200890 -0.311210 
				CHANNELS 3 Zrotation Yrotation Xrotation
				JOINT LeftForeArm
				{
					OFFSET 4.983000 -0.000000 -0.000000 
					CHANNELS 3 Zrotation Yrotation Xrotation
					JOINT LeftHand
					{
						OFFSET 3.483560 -0.000000 -0.000000 
						CHANNELS 3 Zrotation Yrotation Xrotation
						JOINT LeftHandIndex1
						{
							OFFSET 0.715260 -0.000000 -0.000000 
							CHANNELS 3 Zrotation Yrotation Xrotation
							End Site
							{
								OFFSET 0.000000 0.000000 0.000000 
							}
						}
					}
				}
			}
			JOINT RightArm
			{
				OFFSET -3.136600 1.374050 -0.404650 
				CHANNELS 3 Zrotation Yrotation Xrotation
				JOINT RightForeArm
				{
					OFFSET -5.241900 -0.000000 -0.000000 
					CHANNELS 3 Zrotation Yrotation Xrotation
					JOINT RightHand
					{
						OFFSET -3.444170 -0.000000 -0.000000 
						CHANNELS 3 Zrotation Yrotation Xrotation
						JOINT RightHandIndex1
						{
							OFFSET -0.622530 -0.000000 -0.000000 
							CHANNELS 3 Zrotation Yrotation Xrotation
							End Site
							{
								OFFSET 0.000000 0.000000 0.000000 
							}
						}
					}
				}
			}
		}
	}
}
MOTION
Frames: 7
Frame Time: 0.041667
-11.381302 17.906148 -15.437644 2.684778 -1.922712 1.345578 -21.424953 -3.640889 7.456658 1.388092 8.565395 27.232949 0.581205 -2.733887 18.700415 1.024200 -6.438000 -18.060600 18.114051 6.958651 -22.320906 -1.378115 -8.358236 24.275871 0.087841 -3.140185 8.866970 -0.225200 -3.054300 8.430100 1.758356 -1.220033 1.582100 2.815430 -0.788235 -4.191209 6.503331 -4.414441 18.832751 4.345600 -2.453400 13.968800 -81.559496 -6.590528 22.612433 16.988433 -23.701425 -4.238845 -1.358198 -2.191168 6.066112 -7.125000 0.000000 0.000000 85.746739 -4.729132 6.071170 -13.414993 19.852300 -2.420325 0.328066 -0.237386 11.346792 7.125000 0.000000 0.000000 
-11.404388 17.901450 -15.288434 2.212295 -1.889892 1.333807 -20.836645 -3.803686 6.429617 1.802587 9.240811 29.390191 0.877703 -3.490126 22.035450 1.560500 -7.883400 -22.360600 18.821305 6.417605 -22.118907 -1.434931 -8.452008 24.646383 0.045325 -2.636290 8.185485 -0.197800 -2.863900 7.900000 1.839994 -1.192574 1.600271 2.674218 -0.775665 -4.122854 6.422928 -4.399805 18.903848 4.294300 -2.444400 14.023500 -81.551945 -6.317141 22.645764 16.778476 -23.427618 -4.133395 -1.381361 -2.146341 6.000533 -7.125000 0.000000 0.000000 85.664714 -4.616502 6.358925 -13.421820 19.862351 -2.423699 0.328159 -0.228189 11.217923 7.125000 0.000000 0.000000 
-11.424276 17.904748 -15.141123 1.698347 -1.923839 1.304932 -20.257065 -4.233225 5.257802 2.288109 9.998245 31.972934 0.992333 -5.894316 23.011795 1.830300 -8.503300 -24.253500 19.559819 5.935190 -21.504330 -1.395990 -8.331804 24.381562 0.002306 -2.226916 7.843825 -0.180400 -2.735500 7.543300 1.928220 -1.111175 1.590329 2.519162 -0.732296 -4.151027 6.459362 -4.422137 18.812523 4.299700 -2.447000 13.947300 -81.519691 -5.994029 22.707159 16.626696 -23.233820 -4.059134 -1.367324 -2.162896 6.161537 -7.125000 0.000000 0.000000 85.579071 -4.570030 6.584926 -13.423696 19.866492 -2.425159 0.329074 -0.229423 11.015062 7.125000 0.000000 0.000000 
-11.444164 17.902050 -14.994912 1.321414 -1.763458 1.179460 -19.789823 -4.872292 4.417563 2.785976 10.712408 34.454237 1.035512 -7.621009 23.653270 1.309400 -7.248600 -20.454000 20.132474 5.349971 -20.714498 -1.336127 -8.166199 23.968535 -0.034925 -1.902563 7.653086 -0.192900 -2.828500 7.801800 2.000641 -1.115677 1.592715 2.433974 -0.730052 -4.199553 6.446855 -4.435869 18.801314 4.277500 -2.448300 13.912300 -81.512632 -5.676162 22.682585 16.462349 -23.021725 -3.978155 -1.366372 -2.172652 6.710372 -7.125000 0.000000 0.000000 85.480832 -4.464939 6.662239 -13.411665 19.852642 -2.421590 0.326246 -0.237944 10.952625 7.125000 0.000000 0.000000 
-11.470148 18.005787 -14.839906 0.841273 -1.670575 1.098939 -19.155381 -5.718882 2.340612 3.362999 11.497682 36.983247 1.413990 -5.896512 27.319997 0.175500 -2.698500 -7.440500 20.788843 4.827396 -19.638596 -1.231247 -7.880106 23.224658 -0.051867 -1.681922 7.446532 -0.212400 -2.967300 8.187600 2.106403 -1.131811 1.577269 2.377649 -0.730873 -4.279650 6.516740 -4.443216 18.773557 4.322800 -2.453800 13.885800 -81.520107 -5.372271 22.659659 16.287585 -22.791856 -3.892277 -1.347667 -2.203116 7.133556 -7.125000 0.000000 0.000000 85.331368 -4.323640 6.967081 -13.433398 19.890004 -2.430301 0.332797 -0.271126 10.816901 7.125000 0.000000 0.000000 
-11.497032 18.029373 -14.697192 0.509254 -1.724921 1.060099 -18.688418 -6.060130 0.953784 3.931456 12.172625 39.415266 1.633939 -6.339704 29.348593 0.037700 -1.253700 -3.447100 21.287180 4.590276 -18.687692 -1.127278 -7.600919 22.478580 -0.062656 -1.536350 7.334695 -0.221700 -3.030900 8.364700 2.227597 -1.119566 1.573551 2.490601 -0.720185 -4.318197 6.604256 -4.400223 18.804329 4.405900 -2.448600 13.907100 -81.634765 -5.026668 22.734120 16.167106 -22.635069 -3.834801 -1.332701 -2.224780 7.145478 -7.125000 0.000000 0.000000 85.101720 -4.180454 7.724601 -13.469799 19.943282 -2.441400 0.363806 -0.341357 9.874584 7.125000 0.000000 0.000000 
-11.511923 18.044464 -14.553480 0.269623 -1.515177 0.882833 -18.400536 -6.660614 -0.102332 4.517459 12.810304 41.766870 1.805972 -6.088236 30.776485 0.004400 0.427300 1.174100 21.670099 4.075277 -17.604317 -0.998204 -7.254246 21.521396 -0.051430 -1.573736 7.387087 -0.223900 -3.046000 8.406800 2.267563 -1.161375 1.622475 2.403971 -0.737795 -4.301204 6.663532 -4.425372 18.818871 4.432500 -2.453200 13.928700 -81.649282 -4.808064 23.070082 16.064497 -22.502261 -3.787516 -1.354765 -2.230590 6.906067 -7.125000 0.000000 0.000000 84.976203 -3.918407 8.159404 -13.394350 19.834673 -2.410104 0.396739 -0.407446 8.708164 7.125000 0.000000 0.000000 
